<svg width="36" height="36" viewBox="0 0 36 36" fill="none" xmlns="http://www.w3.org/2000/svg">
<g clip-path="url(#clip0_53_102)">
<path d="M32.0685 25.3695C29.8005 23.4525 28.5 20.6505 28.5 17.682V13.5C28.5 8.2215 24.579 3.852 19.5 3.12V1.5C19.5 0.6705 18.828 0 18 0C17.172 0 16.5 0.6705 16.5 1.5V3.12C11.4195 3.852 7.5 8.2215 7.5 13.5V17.682C7.5 20.6505 6.1995 23.4525 3.918 25.3815C3.3345 25.881 3 26.607 3 27.375C3 28.8225 4.1775 30 5.625 30H30.375C31.8225 30 33 28.8225 33 27.375C33 26.607 32.6655 25.881 32.0685 25.3695Z" fill="black"/>
<path d="M18 36C20.7165 36 22.989 34.0635 23.511 31.5H12.489C13.011 34.0635 15.2835 36 18 36Z" fill="black"/>
</g>
<defs>
<clipPath id="clip0_53_102">
<rect width="36" height="36" fill="white"/>
</clipPath>
</defs>
</svg>
