<?xml version="1.0" encoding="utf-8"?>
<!-- Generator: Adobe Illustrator 22.0.0, SVG Export Plug-In . SVG Version: 6.00 Build 0)  -->
<svg version="1.1" id="Layer_1" xmlns="http://www.w3.org/2000/svg" xmlns:xlink="http://www.w3.org/1999/xlink" x="0px" y="0px"
	 viewBox="0 0 285 283.3" style="enable-background:new 0 0 285 283.3;" xml:space="preserve">
<g>
	<path d="M284.1,79.5v166.1c-0.3,0.7-0.5,1.4-0.6,2.1c-2,17.1-14.8,31-31.7,34.5c-1.8,0.4-3.5,0.8-5.3,1.2H38.4
		c-0.8-0.2-1.7-0.3-2.5-0.3c-20.9-2.8-34.9-19.7-34.9-40.8c0-76.9,0-153.8,0-230.7C0.9,4.2,5,0,12.2,0h199.7C219,0,223,4,223,11.1
		c0,18.9,0,37.8,0,56.7c0,2.4,0.6,3.1,3.1,3.1c15.6-0.1,31.2-0.1,46.7,0C272.8,70.8,283.6,69.7,284.1,79.5z M208.6,263.2
		c-0.3-0.9-0.4-1.4-0.6-1.8c-3.2-6.7-4.8-14-4.6-21.4c0.1-72.1,0.1-144.3,0-216.4c0-3.9,0-3.9-3.7-3.9H24.3c-3.7,0-3.7,0-3.7,3.7
		c0,72.6,0,145.2,0,217.8c0,13.4,8.8,22.2,22.2,22.2h162.2C206,263.3,207.1,263.2,208.6,263.2z M264.2,168c0-24.7,0-49.4,0-74.2
		c0-2.5-0.7-3.4-3.3-3.3c-11.6,0.1-23.2,0.1-34.8,0c-2.1,0-3.1,0.4-3.1,2.9c0.1,49.9,0,99.8,0.1,149.7c0,14,14.2,23.7,27.5,18.9
		c8.5-3.1,13.7-10.8,13.7-20.7C264.2,216.9,264.2,192.4,264.2,168L264.2,168z"/>
	<path d="M111.8,120.9c-19.8,0-39.6-0.1-59.4,0.1c-5.6,0-10.8-3.7-10.9-10c0-5.7,4.5-9.8,10.8-9.8H172c5.6,0,9.7,3.3,10.5,8.6
		c0.6,4.8-2.3,9.3-6.9,10.6c-1.3,0.3-2.7,0.5-4.1,0.4C151.6,120.9,131.7,120.9,111.8,120.9z"/>
	<path d="M111.9,161.4c-20.1,0-40.2,0-60.3,0c-6.9,0-11.3-5.6-9.8-12.2c1.1-4.2,4.9-7.2,9.3-7.4c0.5,0,1.1,0,1.6,0h118.6
		c5.5,0,9.3,2.5,10.7,7c1.7,5-1,10.4-6.1,12.1c-0.9,0.3-1.8,0.5-2.8,0.5c-9.3,0.2-18.6,0.1-27.9,0.1L111.9,161.4L111.9,161.4z"/>
	<path d="M112,201.9c-19.5,0-38.9,0-58.4,0c-1.8,0.1-3.7-0.1-5.5-0.5c-5.1-1.8-7.8-7.3-6-12.4c1.1-3.3,4-5.7,7.4-6.4
		c1.3-0.2,2.6-0.3,3.8-0.4c39.1,0,78.2,0,117.3,0c6.6,0,10.4,2.6,11.7,7.9c1.1,5.2-2.1,10.4-7.4,11.5c-0.3,0.1-0.5,0.1-0.8,0.1
		c-1.5,0.1-2.9,0.2-4.4,0.2L112,201.9z"/>
	<path d="M112.2,242.5c-19.5,0-38.9,0-58.4,0c-1.9,0-3.9-0.2-5.7-0.7c-4.5-1.5-7.2-6-6.4-10.7c0.5-4.5,4.2-7.9,8.7-8.2
		c1.2-0.1,2.4-0.1,3.6-0.1c38.8,0,77.5,0,116.2,0c1.8-0.1,3.7,0.1,5.5,0.4c5.1,1.5,8.1,6.9,6.5,12.1c-1,3.5-4,6.1-7.6,6.8
		c-1.5,0.3-3.1,0.4-4.7,0.4C150.7,242.6,131.4,242.6,112.2,242.5z"/>
	<path d="M112.2,50.8c10.1,0,20.3-0.1,30.4,0c5.4,0.2,9.7,4.7,9.5,10.1c-0.2,5.4-4.7,9.7-10.1,9.5c-20,0.1-40,0.1-60,0
		c-5.2,0.2-9.7-3.7-10.3-8.9c-0.4-4.6,2.4-8.8,6.7-10.2c1.4-0.4,2.9-0.5,4.4-0.5C92.7,50.8,102.5,50.8,112.2,50.8L112.2,50.8z"/>
</g>
</svg>
