<svg width="320" height="94" viewBox="0 0 320 94" fill="none" xmlns="http://www.w3.org/2000/svg">
<path d="M3.70328 93.5447C2.23663 92.9365 1.06348 91.7634 0.455285 90.2967L0.917147 90.1052C0.648515 89.4574 0.5 88.7467 0.5 88V84.5833H0V77.75H0.5V70.9167H0V64.0833H0.5V57.25H0V50.4167H0.5V43.5833H0V36.75H0.5V29.9167H0V23.0833H0.5V16.25H0V9.41667H0.5V6C0.5 5.25332 0.648515 4.5426 0.917146 3.8948L0.455283 3.70327C1.06348 2.23663 2.23663 1.06348 3.70327 0.455283L3.8948 0.917146C4.5426 0.648515 5.25332 0.5 6 0.5H9.5V0H16.5V0.5H23.5V0H30.5V0.5H37.5V0H44.5V0.5H51.5V0H58.5V0.5H65.5V0H72.5V0.5H79.5V0H86.5V0.5H93.5V0H100.5V0.5H107.5V0H114.5V0.5H121.5V0H128.5V0.5H135.5V0H142.5V0.5H149.5V0H156.5V0.5H163.5V0H170.5V0.5H177.5V0H184.5V0.5H191.5V0H198.5V0.5H205.5V0H212.5V0.5H219.5V0H226.5V0.5H233.5V0H240.5V0.5H247.5V0H254.5V0.5H261.5V0H268.5V0.5H275.5V0H282.5V0.5H289.5V0H296.5V0.5H303.5V0H310.5V0.5H314C314.747 0.5 315.457 0.648516 316.105 0.917149L316.297 0.455285C317.763 1.06348 318.937 2.23663 319.545 3.70328L319.083 3.8948C319.351 4.5426 319.5 5.25333 319.5 6V9.41666H320V16.25H319.5V23.0833H320V29.9167H319.5V36.75H320V43.5833H319.5V50.4167H320V57.25H319.5V64.0833H320V70.9167H319.5V77.75H320V84.5833H319.5V88C319.5 88.7467 319.351 89.4574 319.083 90.1052L319.545 90.2967C318.937 91.7634 317.763 92.9365 316.297 93.5447L316.105 93.0829C315.457 93.3515 314.747 93.5 314 93.5H310.5V94H303.5V93.5H296.5V94H289.5V93.5H282.5V94H275.5V93.5H268.5V94H261.5V93.5H254.5V94H247.5V93.5H240.5V94H233.5V93.5H226.5V94H219.5V93.5H212.5V94H205.5V93.5H198.5V94H191.5V93.5H184.5V94H177.5V93.5H170.5V94H163.5V93.5H156.5V94H149.5V93.5H142.5V94H135.5V93.5H128.5V94H121.5V93.5H114.5V94H107.5V93.5H100.5V94H93.5V93.5H86.5V94H79.5V93.5H72.5V94H65.5V93.5H58.5V94H51.5V93.5H44.5V94H37.5V93.5H30.5V94H23.5V93.5H16.5V94H9.5V93.5H6C5.25333 93.5 4.5426 93.3515 3.8948 93.0829L3.70328 93.5447Z" fill="#E6E5EE" fill-opacity="0.4" stroke="#AEAEB2" stroke-dasharray="7 7"/>
</svg>
