<svg width="35" height="33" viewBox="0 0 35 33" fill="none" xmlns="http://www.w3.org/2000/svg">
<g clip-path="url(#clip0_323_176)">
<path d="M25.5611 25.1053L31.8411 17.3036C32.1491 16.9264 32.2951 16.4426 32.2471 15.958C32.1992 15.4734 31.9612 15.0275 31.5853 14.718L15.2921 1.43556C15.105 1.28453 14.89 1.17187 14.6593 1.10403C14.4286 1.03619 14.1868 1.0145 13.9478 1.0402C13.7087 1.0659 13.4771 1.13848 13.2661 1.2538C13.0551 1.36912 12.869 1.52491 12.7183 1.71226L9.76544 5.352L5.18918 13.2783L25.5611 25.1053Z" fill="#146AA8"/>
<path d="M31.3968 14.9279L26.7396 11.1288C20.2087 14.4719 12.4969 14.9465 6.91927 14.7286L25.3174 25.4106L31.6521 17.535C31.9628 17.1549 32.1103 16.6673 32.0625 16.1787C32.0146 15.6902 31.7753 15.2405 31.3968 14.9279Z" fill="#126099"/>
<path d="M9.69103 6.70314L28.2301 17.4067C28.6591 17.661 28.9698 18.0751 29.0939 18.5581C29.218 19.0411 29.1455 19.5537 28.8922 19.9833L22.7146 30.6833C22.4693 31.1178 22.0616 31.4371 21.5811 31.5713C21.1006 31.7055 20.5865 31.6435 20.1516 31.399L1.61253 20.6955C1.1835 20.4412 0.872843 20.0271 0.748712 19.5441C0.62458 19.061 0.697104 18.5485 0.950377 18.1189L7.12803 7.41885C7.37333 6.98442 7.78098 6.66508 8.2615 6.5309C8.74201 6.39671 9.25614 6.45866 9.69103 6.70314Z" fill="#4398D1"/>
<path d="M27.8031 17.7942L27.485 17.6106C19.8971 21.9876 10.2036 22.399 4.57468 22.1514L20.1093 31.1203C20.5273 31.3686 21.0269 31.4408 21.4981 31.321C21.9694 31.2012 22.3738 30.8992 22.6225 30.4813L28.5082 20.287C28.7445 19.8627 28.803 19.3621 28.6709 18.8948C28.5387 18.4276 28.2266 18.0318 27.8031 17.7942Z" fill="#3E8CC7"/>
<path d="M12.9257 12.1231L8.95312 9.82959L7.09842 13.042L11.071 15.3356L12.9257 12.1231Z" fill="#FDB62F"/>
<path d="M9.44835 11.7228L8.25684 11.0349L7.79304 11.8382L8.98456 12.5262L9.44835 11.7228Z" fill="#FD7B2F"/>
<path d="M12.2296 13.3285L11.0381 12.6406L10.5743 13.4439L11.7658 14.1319L12.2296 13.3285Z" fill="#FD7B2F"/>
<path d="M18.8825 28.4123C19.9797 29.0458 21.3882 28.6603 22.0285 27.5514C22.6687 26.4425 22.2982 25.03 21.201 24.3965C20.1038 23.763 18.6953 24.1485 18.0551 25.2574C17.4149 26.3663 17.7853 27.7788 18.8825 28.4123Z" fill="#FDB62F"/>
<path d="M16.4987 27.0358C17.596 27.6693 19.0044 27.2839 19.6447 26.1749C20.2849 25.066 19.9145 23.6535 18.8172 23.0201C17.72 22.3866 16.3116 22.772 15.6713 23.8809C15.0311 24.9898 15.4015 26.4023 16.4987 27.0358Z" fill="#DE4C3C"/>
<path d="M7.46246 16.9991L5.07861 15.6228L4.61482 16.4261L6.99867 17.8024L7.46246 16.9991Z" fill="#87CED9"/>
<path d="M11.4346 19.2928L9.05078 17.9165L8.58699 18.7198L10.9708 20.0961L11.4346 19.2928Z" fill="#87CED9"/>
<path d="M15.4083 21.5868L13.0244 20.2104L12.5606 21.0138L14.9445 22.3901L15.4083 21.5868Z" fill="#87CED9"/>
<path d="M14.0159 23.9964L3.68701 18.033L3.22322 18.8363L13.5521 24.7997L14.0159 23.9964Z" fill="#87CED9"/>
<path d="M21.6654 17.1691L20.8711 16.7104L19.944 18.3163L20.7383 18.7749L21.6654 17.1691Z" fill="#87CED9"/>
<path d="M23.2553 18.0868L22.4609 17.6282L21.5338 19.234L22.3282 19.6926L23.2553 18.0868Z" fill="#87CED9"/>
<path d="M24.8437 19.004L24.0493 18.5454L23.1222 20.1512L23.9165 20.6098L24.8437 19.004Z" fill="#87CED9"/>
<path d="M26.4335 19.9217L25.6392 19.4631L24.712 21.069L25.5064 21.5276L26.4335 19.9217Z" fill="#87CED9"/>
</g>
<defs>
<clipPath id="clip0_323_176">
<rect width="34.6071" height="32.33" fill="white"/>
</clipPath>
</defs>
</svg>
