<svg fill="none" height="40" viewBox="0 0 40 40" width="40" xmlns="http://www.w3.org/2000/svg">
    <circle cx="20" cy="20" fill="#4DC4FF" fill-opacity="0.1" r="20" />
    <g clip-path="url(#clip0_1133_606)">
        <path
            d="M31.5471 15.3311L30.1881 15.8804C30.7174 17.1878 31.0352 18.574 31.0352 20.0002C31.0352 26.0584 26.0582 31.0354 20 31.0354C17.3282 31.0354 14.7675 30.0025 12.777 28.2637L14.9703 27.9438L14.76 26.494L10.4785 27.1178V30.9866H11.9434V29.4725C14.1811 31.3742 17.0279 32.5002 20 32.5002C26.865 32.5002 32.5 26.866 32.5 20.0002C32.5 18.3845 32.1465 16.8138 31.5471 15.3311Z"
            fill="#4DC4FF" />
        <path
            d="M20 8.96484C22.6718 8.96484 25.2325 9.99775 27.223 11.7366L25.0297 12.0564L25.24 13.5062L29.5215 12.8825V9.01367H28.0566V10.5278C25.8189 8.62607 22.9721 7.5 20 7.5C13.135 7.5 7.5 13.1343 7.5 20C7.5 21.6158 7.85352 23.1865 8.45293 24.6692L9.81191 24.1199C9.28262 22.8124 8.96484 21.4262 8.96484 20C8.96484 13.9418 13.9418 8.96484 20 8.96484Z"
            fill="#4DC4FF" />
        <path
            d="M26.5918 20.7324V19.2676H25.0529C24.9276 18.4033 24.5931 17.613 24.0917 16.9438L25.1784 15.8565L24.1427 14.8208L23.056 15.9081C22.3868 15.4068 21.5966 15.0723 20.7324 14.9471V13.4082H19.2676V14.9471C18.4034 15.0723 17.6132 15.4068 16.944 15.9081L15.8573 14.8208L14.8216 15.8565L15.9083 16.9438C15.4069 17.613 15.0724 18.4033 14.9471 19.2676H13.4082V20.7324H14.9471C15.0724 21.5967 15.4069 22.387 15.9083 23.0562L14.8216 24.1435L15.8573 25.1792L16.944 24.0919C17.6132 24.5932 18.4034 24.9277 19.2676 25.0529V26.5918H20.7324V25.0529C21.5966 24.9277 22.3868 24.5932 23.056 24.0919L24.1427 25.1792L25.1784 24.1435L24.0917 23.0562C24.5931 22.387 24.9276 21.5967 25.0529 20.7324H26.5918ZM20 22.1973C18.7884 22.1973 17.8027 21.2116 17.8027 20C17.8027 18.7884 18.7884 17.8027 20 17.8027C21.2116 17.8027 22.1973 18.7884 22.1973 20C22.1973 21.2116 21.2116 22.1973 20 22.1973Z"
            fill="#5A77B3" />
        <path
            d="M26.5918 20.7324V19.2676H25.0529C24.9276 18.4033 24.5931 17.613 24.0917 16.9438L25.1784 15.8565L24.1427 14.8208L23.056 15.9081C22.3868 15.4068 21.5966 15.0723 20.7324 14.9471V13.4082H20V17.8027C21.2116 17.8027 22.1973 18.7884 22.1973 20C22.1973 21.2116 21.2116 22.1973 20 22.1973V26.5918H20.7324V25.0529C21.5966 24.9277 22.3868 24.5932 23.056 24.0919L24.1427 25.1792L25.1784 24.1435L24.0917 23.0562C24.5931 22.387 24.9276 21.5967 25.0529 20.7324H26.5918Z"
            fill="#4D5B99" />
        <path
            d="M32.5 20.0002C32.5 18.3845 32.1465 16.8138 31.5471 15.3311L30.1881 15.8804C30.7174 17.1878 31.0352 18.574 31.0352 20.0002C31.0352 26.0584 26.0582 31.0354 20 31.0354V32.5002C26.865 32.5002 32.5 26.866 32.5 20.0002Z"
            fill="#4DA6FF" />
        <path
            d="M27.223 11.7366L25.0297 12.0564L25.24 13.5062L29.5215 12.8825V9.01367H28.0566V10.5278C25.8189 8.62607 22.9721 7.5 20 7.5V8.96484C22.6718 8.96484 25.2325 9.99775 27.223 11.7366Z"
            fill="#4DA6FF" />
    </g>
    <defs>
        <clipPath id="clip0_1133_606">
            <rect fill="white" height="25" transform="translate(7.5 7.5)" width="25" />
        </clipPath>
    </defs>
</svg>
