<svg width="63" height="18" viewBox="0 0 63 18" fill="none" xmlns="http://www.w3.org/2000/svg">
<path fill-rule="evenodd" clip-rule="evenodd" d="M17.4717 6.39998C17.8477 6.39998 18.1596 6.52801 18.4077 6.77596C18.6557 7.03201 18.7757 7.33602 18.7757 7.69602V13.824C18.7757 14.184 18.6557 14.496 18.4077 14.744C18.1596 14.992 17.8477 15.12 17.4717 15.12C16.9197 15.12 16.5117 14.856 16.2557 14.32C15.7116 14.96 14.9597 15.28 14.0157 15.28C12.8797 15.28 11.9277 14.848 11.1517 13.968C10.3757 13.088 9.9917 12.024 9.9917 10.76C9.9917 9.49602 10.3757 8.43196 11.1517 7.55202C11.9197 6.67998 12.8797 6.23999 14.0157 6.23999C14.9597 6.23999 15.7116 6.55996 16.2557 7.19999C16.5117 6.66397 16.9117 6.39998 17.4717 6.39998ZM14.3837 12.896C14.9437 12.896 15.3757 12.688 15.6957 12.28C16.0077 11.872 16.1677 11.368 16.1757 10.76C16.1757 10.152 16.0157 9.64799 15.6957 9.23997C15.3757 8.83201 14.9437 8.62398 14.3837 8.62398C13.8237 8.62398 13.3917 8.83201 13.0717 9.23997C12.7517 9.64799 12.5917 10.16 12.5917 10.76C12.5917 11.36 12.7517 11.872 13.0717 12.28C13.3917 12.688 13.8237 12.896 14.3837 12.896Z" fill="#0068FF"/>
<path d="M21.7278 14.7439C21.4797 14.9919 21.1678 15.1199 20.7918 15.1199C20.4158 15.1199 20.1038 14.9919 19.8558 14.7439C19.6077 14.4959 19.4878 14.1839 19.4878 13.8239V2.86387C19.4878 2.50387 19.6077 2.19187 19.8558 1.94387C20.1038 1.69587 20.4158 1.56787 20.7918 1.56787C21.1678 1.56787 21.4797 1.69587 21.7278 1.94387C21.9758 2.19187 22.0957 2.50387 22.0957 2.86387V13.8319C22.0957 14.1919 21.9677 14.4959 21.7278 14.7439Z" fill="#0068FF"/>
<path fill-rule="evenodd" clip-rule="evenodd" d="M27.1685 6.23999C28.4645 6.23999 29.5285 6.67201 30.3605 7.55202C31.1685 8.40798 31.5685 9.48001 31.5605 10.76C31.5605 12.04 31.1605 13.112 30.3605 13.968C29.5285 14.84 28.4645 15.28 27.1685 15.28C25.8725 15.28 24.8165 14.848 24.0005 13.984C23.1765 13.12 22.7686 12.04 22.7686 10.76C22.7686 9.48001 23.1845 8.40001 24.0005 7.53601C24.8245 6.67201 25.8725 6.23999 27.1685 6.23999ZM27.1685 12.896C27.7285 12.896 28.1605 12.688 28.4805 12.28C28.8005 11.872 28.9605 11.368 28.9525 10.76C28.9525 10.152 28.8005 9.64799 28.4805 9.23997C28.1605 8.83201 27.7285 8.62398 27.1685 8.62398C26.6085 8.62398 26.1765 8.83201 25.8565 9.23997C25.5365 9.64799 25.3765 10.16 25.3765 10.76C25.3765 11.36 25.5365 11.872 25.8565 12.28C26.1765 12.688 26.6085 12.896 27.1685 12.896Z" fill="#0068FF"/>
<path d="M8.54401 6.5439C9.46401 5.35191 9.92802 4.55191 9.92802 4.14391C9.92802 3.19191 9.32804 2.71191 8.12802 2.71191H1.80004C1.30404 2.71191 0.92004 2.83191 0.648041 3.06391C0.376039 3.29591 0.240039 3.60792 0.240039 3.98391C0.240039 4.35991 0.376039 4.66391 0.648041 4.90392C0.92004 5.13591 1.30404 5.25591 1.80004 5.25591H6.14404L0.584039 12.4479C0.224039 12.9199 0.0400391 13.3359 0.0400391 13.6959C0.0400391 14.7439 0.728038 15.2639 2.11204 15.2639H8.64006C9.68001 15.2639 10.2 14.8239 10.2 13.9519C10.2 13.0799 9.68001 12.6399 8.64006 12.6399H3.84004L8.54401 6.5439Z" fill="#0068FF"/>
<path d="M39.9275 5.22388H38.1836V8.85588H39.9275C40.4556 8.85588 40.8795 8.6879 41.1996 8.34391C41.5275 7.99985 41.6876 7.56785 41.6876 7.03987C41.6876 6.51189 41.5275 6.07988 41.1996 5.73588C40.8795 5.39988 40.4475 5.22388 39.9275 5.22388Z" fill="#03CA77"/>
<path d="M48.6407 8.63989C48.0887 8.63989 47.6487 8.83995 47.3367 9.24791C47.0248 9.65593 46.8647 10.1599 46.8647 10.7599C46.8647 11.3599 47.0248 11.864 47.3367 12.2719C47.6487 12.6799 48.0887 12.8799 48.6407 12.8799C49.1927 12.8799 49.6327 12.6799 49.9447 12.2719C50.2567 11.864 50.4167 11.3599 50.4167 10.7599C50.4167 10.1599 50.2567 9.65593 49.9447 9.24791C49.6327 8.83995 49.1927 8.63989 48.6407 8.63989Z" fill="#03CA77"/>
<path fill-rule="evenodd" clip-rule="evenodd" d="M60.9759 0.0400391H35.6559C34.8079 0.0400391 34.1279 0.728041 34.1279 1.56804V16.4001C34.1279 17.248 34.8159 17.9281 35.6559 17.9281H55.6399C55.4319 17.7281 55.3199 17.4961 55.3199 17.2241C55.3199 17.0081 55.3679 16.7761 55.4639 16.536L56.4079 14.44L53.7999 7.92803C53.7199 7.74404 53.688 7.54405 53.688 7.32002C53.688 7.03202 53.8079 6.79204 54.048 6.60002C54.2879 6.40004 54.5359 6.30404 54.7999 6.30404C55.3759 6.30404 55.7759 6.58407 55.9839 7.14407L57.6079 11.584L59.3439 7.14407C59.5599 6.58407 59.952 6.30404 60.528 6.30404C60.7919 6.30404 61.0399 6.40004 61.2799 6.60002C61.5199 6.80007 61.6399 7.04005 61.6399 7.32002C61.6399 7.53602 61.5999 7.74404 61.5279 7.92803L57.6639 17.304C57.5599 17.5681 57.4319 17.776 57.2799 17.92H60.9679C61.8159 17.92 62.4959 17.232 62.4959 16.392V1.56804C62.5039 0.720038 61.824 0.0400391 60.9759 0.0400391ZM43.0959 10.0241C42.2959 10.752 41.2959 11.12 40.08 11.12H38.1759V13.92C38.1759 14.3441 38.0559 14.6721 37.8159 14.9041C37.576 15.1361 37.272 15.256 36.8879 15.256C36.512 15.256 36.1999 15.1361 35.9599 14.9041C35.72 14.6721 35.5999 14.3441 35.5999 13.92V4.30404C35.5999 3.41603 36.048 2.96804 36.9359 2.96804H39.9679C41.232 2.96804 42.2799 3.34403 43.1119 4.10404C43.9359 4.86404 44.3519 5.84804 44.3519 7.05606C44.3599 8.28006 43.9359 9.26402 43.0959 10.0241ZM52.6399 14.728C52.8879 14.4721 53.0079 14.1681 53.0079 13.8081V7.72804C53.0079 7.36007 52.8799 7.05606 52.6399 6.80804C52.3999 6.56003 52.0879 6.43204 51.7119 6.43204C51.1519 6.43204 50.7519 6.70403 50.4959 7.23207C49.9519 6.59204 49.2159 6.27204 48.2719 6.27204C47.1439 6.27204 46.1919 6.70403 45.4239 7.57607C44.6559 8.44804 44.2719 9.51203 44.2719 10.768C44.2719 12.0241 44.6559 13.0881 45.4239 13.96C46.1919 14.8321 47.1439 15.2641 48.2719 15.2641C49.2079 15.2641 49.9519 14.944 50.4959 14.304C50.7519 14.84 51.1599 15.1041 51.7119 15.1041C52.0879 15.1041 52.3919 14.9761 52.6399 14.728Z" fill="#03CA77"/>
</svg>
