<svg width="35" height="35" viewBox="0 0 35 35" fill="none" xmlns="http://www.w3.org/2000/svg">
    <path
        d="M14.2188 32.8125C16.0309 32.8125 17.5 31.3434 17.5 29.5312C17.5 27.7191 16.0309 26.25 14.2188 26.25C12.4066 26.25 10.9375 27.7191 10.9375 29.5312C10.9375 31.3434 12.4066 32.8125 14.2188 32.8125Z"
        fill="#5E5E5E" />
    <path
        d="M25.1562 32.8125C26.9684 32.8125 28.4375 31.3434 28.4375 29.5312C28.4375 27.7191 26.9684 26.25 25.1562 26.25C23.3441 26.25 21.875 27.7191 21.875 29.5312C21.875 31.3434 23.3441 32.8125 25.1562 32.8125Z"
        fill="#5E5E5E" />
    <path
        d="M32.0813 8.45086C31.8765 8.20194 31.6189 8.00155 31.3273 7.86415C31.0356 7.72674 30.7172 7.65574 30.3948 7.65625H8.4432L7.81047 4.49312C7.71049 3.99766 7.44238 3.55195 7.05152 3.23146C6.66067 2.91096 6.17108 2.73536 5.66562 2.73438H3.82812C3.53804 2.73438 3.25984 2.84961 3.05473 3.05473C2.84961 3.25984 2.73438 3.53804 2.73438 3.82812C2.73438 4.11821 2.84961 4.3964 3.05473 4.60152C3.25984 4.80664 3.53804 4.92188 3.82812 4.92188H5.66562C5.66562 4.92188 8.99773 21.5523 9.02344 21.612C9.20652 22.3116 9.61563 22.9312 10.1872 23.3743C10.7587 23.8175 11.4606 24.0594 12.1838 24.0625H27.1797C27.9421 24.0616 28.6804 23.7956 29.2683 23.3101C29.8561 22.8246 30.2569 22.1499 30.4019 21.4014L32.5451 10.2572C32.6062 9.94055 32.5963 9.61428 32.5161 9.30193C32.4359 8.98957 32.2874 8.69889 32.0813 8.45086ZM23.5156 16.9531H20.7812V19.6875C20.7812 19.9776 20.666 20.2558 20.4609 20.4609C20.2558 20.666 19.9776 20.7812 19.6875 20.7812C19.3974 20.7812 19.1192 20.666 18.9141 20.4609C18.709 20.2558 18.5938 19.9776 18.5938 19.6875V16.9531H15.8594C15.5693 16.9531 15.2911 16.8379 15.086 16.6328C14.8809 16.4277 14.7656 16.1495 14.7656 15.8594C14.7656 15.5693 14.8809 15.2911 15.086 15.086C15.2911 14.8809 15.5693 14.7656 15.8594 14.7656H18.5938V12.0312C18.5938 11.7412 18.709 11.463 18.9141 11.2579C19.1192 11.0527 19.3974 10.9375 19.6875 10.9375C19.9776 10.9375 20.2558 11.0527 20.4609 11.2579C20.666 11.463 20.7812 11.7412 20.7812 12.0312V14.7656H23.5156C23.8057 14.7656 24.0839 14.8809 24.289 15.086C24.4941 15.2911 24.6094 15.5693 24.6094 15.8594C24.6094 16.1495 24.4941 16.4277 24.289 16.6328C24.0839 16.8379 23.8057 16.9531 23.5156 16.9531Z"
        fill="#FFCE4A" />
</svg>
