<svg width="30" height="30" viewBox="0 0 30 30" fill="none" xmlns="http://www.w3.org/2000/svg">
<path d="M19.678 5.52448L16.8869 8.32141C15.8901 9.32031 16.2889 11.0184 17.5847 11.418C18.4818 11.7177 18.9802 12.7166 18.7808 13.6156C18.2824 15.6134 15.6907 18.3104 13.5975 18.8099C12.7003 19.1096 11.7035 18.5102 11.4045 17.6112C11.0058 16.3126 9.31119 15.9131 8.31438 16.912L5.52332 19.7089C4.82556 20.508 4.82556 21.7067 5.52332 22.4059L7.41725 24.3039C9.41087 26.2018 14.6939 24.1041 19.3789 19.4092C24.0639 14.7144 26.2569 9.4202 24.2633 7.42239L22.3693 5.52448C21.5719 4.82521 20.3757 4.82521 19.678 5.52448Z" fill="#54B670"/>
</svg>
