<svg width="40" height="40" viewBox="0 0 40 40" fill="none" xmlns="http://www.w3.org/2000/svg">
<path d="M39.394 19.9979C39.394 30.709 30.7127 39.3934 20.0016 39.3934C9.29046 39.3934 0.606079 30.709 0.606079 19.9979C0.606079 9.28681 9.29046 0.605469 20.0016 0.605469C30.7127 0.605469 39.394 9.28681 39.394 19.9979Z" fill="#B730AA"/>
<path d="M33.7848 25.7137C36.9384 18.1054 33.3272 9.38116 25.7189 6.22752C18.1107 3.07387 9.38641 6.68506 6.23277 14.2933C3.07912 21.9016 6.69031 30.6259 14.2986 33.7795C21.9069 36.9332 30.6311 33.322 33.7848 25.7137Z" fill="#A32391"/>
<path d="M29.6209 5.0524V29.1473C29.6209 29.8127 29.0815 30.3521 28.4161 30.3521H9.39017C8.72481 30.3521 8.18542 29.8127 8.18542 29.1473V5.0524C8.18542 4.38704 8.72481 3.84766 9.39017 3.84766H28.4161C29.0815 3.84766 29.6209 4.38704 29.6209 5.0524Z" fill="#E5F5F9"/>
<path d="M30.7178 6.14908V30.244C30.7178 30.9094 30.1784 31.4488 29.513 31.4488H10.4871C9.82173 31.4488 9.28235 30.9094 9.28235 30.244V6.14908C9.28235 5.48372 9.82173 4.94434 10.4871 4.94434H29.513C30.1784 4.94434 30.7178 5.48372 30.7178 6.14908Z" fill="white"/>
<path d="M16.9865 11.316H10.9597C10.8345 11.316 10.7332 11.2146 10.7332 11.0894V8.22947C10.7332 8.10429 10.8345 8.00293 10.9597 8.00293H16.9865C17.1116 8.00293 17.213 8.10429 17.213 8.22947V11.0894C17.213 11.2146 17.1116 11.316 16.9865 11.316ZM11.1862 10.8629H16.7599V8.45601H11.1862V10.8629Z" fill="#E5F5F9"/>
<path d="M17.213 14.1767H10.7332V10.8633H17.213V14.1767ZM11.1862 13.7236H16.7599V11.3164H11.1862V13.7236Z" fill="#E5F5F9"/>
<path d="M17.213 17.0367H10.7332V13.7236H17.213V17.0367ZM11.1862 16.5836H16.7599V14.1767H11.1862V16.5836Z" fill="#E5F5F9"/>
<path d="M17.213 19.8961H10.7332V16.583H17.213V19.8961ZM11.1862 19.443H16.7599V17.0361H11.1862V19.443Z" fill="#E5F5F9"/>
<path d="M17.213 22.7564H10.7332V19.4434H17.213V22.7564ZM11.1862 22.3033H16.7599V19.8964H11.1862V22.3033Z" fill="#E5F5F9"/>
<path d="M17.213 25.6158H10.7332V22.3027H17.213V25.6158ZM11.1862 25.1627H16.7599V22.7558H11.1862V25.1627Z" fill="#E5F5F9"/>
<path d="M14.7459 9.92091H13.2006C13.0563 9.92091 12.9393 9.8039 12.9393 9.65967C12.9393 9.51545 13.0563 9.39844 13.2006 9.39844H14.7459C14.8901 9.39844 15.0071 9.51545 15.0071 9.65967C15.0071 9.8039 14.8901 9.92091 14.7459 9.92091Z" fill="#4FE88D"/>
<path d="M14.7459 15.6406H13.2006C13.0563 15.6406 12.9393 15.5236 12.9393 15.3794C12.9393 15.2352 13.0563 15.1182 13.2006 15.1182H14.7459C14.8901 15.1182 15.0071 15.2352 15.0071 15.3794C15.0071 15.5236 14.8901 15.6406 14.7459 15.6406Z" fill="#D3E6ED"/>
<path d="M14.7459 21.3613H13.2006C13.0563 21.3613 12.9393 21.2443 12.9393 21.1001C12.9393 20.9559 13.0563 20.8389 13.2006 20.8389H14.7459C14.8901 20.8389 15.0071 20.9559 15.0071 21.1001C15.0071 21.2443 14.8901 21.3613 14.7459 21.3613Z" fill="#D3E6ED"/>
<path d="M15.1004 12.8675H12.8459C12.6533 12.8675 12.4976 12.7117 12.4976 12.5192C12.4976 12.3267 12.6533 12.1709 12.8459 12.1709H15.1004C15.2929 12.1709 15.4487 12.3267 15.4487 12.5192C15.4487 12.7117 15.2929 12.8675 15.1004 12.8675Z" fill="#FC545D"/>
<path d="M15.1004 18.5882H12.8459C12.6533 18.5882 12.4976 18.4324 12.4976 18.2399C12.4976 18.0474 12.6533 17.8916 12.8459 17.8916H15.1004C15.2929 17.8916 15.4487 18.0474 15.4487 18.2399C15.4487 18.4324 15.2929 18.5882 15.1004 18.5882Z" fill="#4FE88D"/>
<path d="M23.0135 11.316H16.9864C16.8613 11.316 16.7599 11.2146 16.7599 11.0894V8.22947C16.7599 8.10429 16.8613 8.00293 16.9864 8.00293H23.0135C23.1387 8.00293 23.2401 8.10429 23.2401 8.22947V11.0894C23.2401 11.2146 23.1387 11.316 23.0135 11.316ZM17.213 10.8629H22.787V8.45601H17.213V10.8629Z" fill="#E5F5F9"/>
<path d="M23.2401 14.1767H16.7599V10.8633H23.2401V14.1767ZM17.213 13.7236H22.787V11.3164H17.213V13.7236Z" fill="#E5F5F9"/>
<path d="M23.2401 17.0367H16.7599V13.7236H23.2401V17.0367ZM17.213 16.5836H22.787V14.1767H17.213V16.5836Z" fill="#E5F5F9"/>
<path d="M23.2401 19.8961H16.7599V16.583H23.2401V19.8961ZM17.213 19.443H22.787V17.0361H17.213V19.443Z" fill="#E5F5F9"/>
<path d="M23.2401 22.7564H16.7599V19.4434H23.2401V22.7564ZM17.213 22.3033H22.787V19.8964H17.213V22.3033Z" fill="#E5F5F9"/>
<path d="M23.2401 25.6158H16.7599V22.3027H23.2401V25.6158ZM17.213 25.1627H22.787V22.7558H17.213V25.1627Z" fill="#E5F5F9"/>
<path d="M20.7727 9.92091H19.2274C19.0832 9.92091 18.9662 9.8039 18.9662 9.65967C18.9662 9.51545 19.0832 9.39844 19.2274 9.39844H20.7727C20.9169 9.39844 21.034 9.51545 21.034 9.65967C21.034 9.8039 20.9169 9.92091 20.7727 9.92091Z" fill="#FC545D"/>
<path d="M20.7727 15.6406H19.2274C19.0832 15.6406 18.9662 15.5236 18.9662 15.3794C18.9662 15.2352 19.0832 15.1182 19.2274 15.1182H20.7727C20.9169 15.1182 21.034 15.2352 21.034 15.3794C21.034 15.5236 20.9169 15.6406 20.7727 15.6406Z" fill="#FC545D"/>
<path d="M21.1275 12.8675H18.873C18.6804 12.8675 18.5247 12.7117 18.5247 12.5192C18.5247 12.3267 18.6804 12.1709 18.873 12.1709H21.1275C21.32 12.1709 21.4758 12.3267 21.4758 12.5192C21.4758 12.7117 21.32 12.8675 21.1275 12.8675Z" fill="#D3E6ED"/>
<path d="M29.0406 11.316H23.0135C22.8884 11.316 22.787 11.2146 22.787 11.0894V8.22947C22.787 8.10429 22.8884 8.00293 23.0135 8.00293H29.0406C29.1658 8.00293 29.2672 8.10429 29.2672 8.22947V11.0894C29.2672 11.2146 29.1658 11.316 29.0406 11.316ZM23.2401 10.8629H28.8141V8.45601H23.2401V10.8629Z" fill="#E5F5F9"/>
<path d="M29.2672 14.1767H22.787V10.8633H29.2672V14.1767ZM23.2401 13.7236H28.8141V11.3164H23.2401V13.7236Z" fill="#E5F5F9"/>
<path d="M29.2672 17.0367H22.787V13.7236H29.2672V17.0367ZM23.2401 16.5836H28.8141V14.1767H23.2401V16.5836Z" fill="#E5F5F9"/>
<path d="M29.2672 19.8961H22.787V16.583H29.2672V19.8961ZM23.2401 19.443H28.8141V17.0361H23.2401V19.443Z" fill="#E5F5F9"/>
<path d="M29.2672 22.7564H22.787V19.4434H29.2672V22.7564ZM23.2401 22.3033H28.8141V19.8964H23.2401V22.3033Z" fill="#E5F5F9"/>
<path d="M29.2672 25.6158H22.787V22.3027H29.2672V25.6158ZM23.2401 25.1627H28.8141V22.7558H23.2401V25.1627Z" fill="#E5F5F9"/>
<path d="M26.7998 9.92091H25.2545C25.1103 9.92091 24.9933 9.8039 24.9933 9.65967C24.9933 9.51545 25.1103 9.39844 25.2545 9.39844H26.7998C26.944 9.39844 27.0611 9.51545 27.0611 9.65967C27.0611 9.8039 26.944 9.92091 26.7998 9.92091Z" fill="#43A1FF"/>
<path d="M27.1546 15.7279H24.8997C24.7072 15.7279 24.5514 15.5721 24.5514 15.3796C24.5514 15.187 24.7072 15.0312 24.8997 15.0312H27.1546C27.3471 15.0312 27.5029 15.187 27.5029 15.3796C27.5029 15.5721 27.3471 15.7279 27.1546 15.7279Z" fill="#43A1FF"/>
<path d="M35.647 31.4492C32.5018 35.7458 27.6326 38.7001 22.0543 39.2849C21.515 39.3424 20.9665 39.3788 20.412 39.3879C20.2757 39.3939 20.1393 39.3939 19.9999 39.3939C18.9122 39.3939 17.8426 39.303 16.8033 39.1303C16.2457 39.0394 15.7003 38.9243 15.161 38.7849C13.1703 38.2728 11.3068 37.4547 9.61909 36.3821C9.04944 36.0215 8.50404 35.6306 7.97682 35.2125C6.60724 34.1277 5.38615 32.8612 4.35291 31.4492H35.647Z" fill="#FFC27C"/>
<path d="M9.61907 33.1063V36.3817C9.04943 36.0212 8.50403 35.6303 7.97681 35.2122V33.1063C7.97681 32.6518 8.34343 32.2852 8.79793 32.2852C9.25441 32.2852 9.61907 32.6499 9.61907 33.1063Z" fill="#F7B26D"/>
<path d="M31.2907 33.3992V35.7657C30.7635 36.1475 30.215 36.499 29.6484 36.8232V33.3992C29.6484 32.9447 30.0151 32.5781 30.4696 32.5781C30.926 32.5781 31.2907 32.9429 31.2907 33.3992Z" fill="#F7B26D"/>
<path d="M26.4154 34.8231V38.3016C25.8791 38.4924 25.3307 38.6591 24.7732 38.7955V34.8231C24.7732 34.3686 25.1398 34.002 25.5943 34.002C26.0508 34.002 26.4154 34.3667 26.4154 34.8231Z" fill="#F7B26D"/>
<path d="M11.3918 31.4492V34.2282C11.3918 34.6742 11.7543 35.0494 12.213 35.0494C12.6675 35.0494 13.0341 34.6827 13.0341 34.2282V31.4492H11.3918Z" fill="#F7B26D"/>
<path d="M34.0874 31.4492V33.3235C34.646 32.7334 35.1676 32.1071 35.6454 31.4492H34.0874Z" fill="#F7B26D"/>
<path d="M16.8033 32.8035V39.1302C16.2457 39.0393 15.7003 38.9242 15.161 38.7848L15.158 32.8035C15.158 32.349 15.5246 31.9824 15.9791 31.9824C16.4443 31.9824 16.8033 32.3681 16.8033 32.8035Z" fill="#F7B26D"/>
<path d="M26.7396 31.4492V32.5375C26.7396 32.981 27.0974 33.3586 27.5607 33.3586C28.0123 33.3586 28.3819 32.9889 28.3819 32.5375V31.4492H26.7396Z" fill="#F7B26D"/>
<path d="M22.0543 31.4492V39.2849C21.5149 39.3424 20.9665 39.3788 20.412 39.3879V31.4492H22.0543Z" fill="#F7B26D"/>
<path d="M31.4626 28.7764V29.9042H19.5045C19.3798 29.9042 19.2797 29.8022 19.2797 29.6794V29.5717C19.2797 29.1315 19.6348 28.7764 20.075 28.7764H31.4626Z" fill="#24272B"/>
<path d="M31.4631 29.9031V28.774V21.4385H35.1262C35.7446 21.4385 36.3155 21.7588 36.6421 22.2821L38.7949 25.7444C38.8907 25.8984 38.9414 26.0761 38.9414 26.2575V29.1102C38.9414 29.5479 38.5862 29.9031 38.1454 29.9031H31.4631Z" fill="#FC545D"/>
<path d="M38.9415 26.2566V29.1112C38.9415 29.5476 38.587 29.9021 38.1446 29.9021H31.4628V21.4385H35.1264C35.7446 21.4385 36.3143 21.7597 36.6416 22.2809L37.087 22.9961L38.7961 25.7445C38.8416 25.8203 38.8779 25.8991 38.9022 25.9809C38.9264 26.0688 38.9415 26.1627 38.9415 26.2566Z" fill="#FC545D"/>
<path d="M38.9075 29.3387C38.8092 29.6637 38.507 29.9017 38.1462 29.9017H31.4625V21.4385H31.9933V28.585C31.9933 29.0195 32.3466 29.3727 32.7811 29.3727H38.6751C38.7563 29.3727 38.8338 29.3614 38.9075 29.3387Z" fill="#F14448"/>
<path d="M38.9022 25.9809H34.1507C33.9446 25.9809 33.7749 25.8112 33.7749 25.6021V23.3718C33.7749 23.1658 33.9446 22.9961 34.1507 22.9961H37.087L38.7961 25.7446C38.8416 25.8203 38.8779 25.8991 38.9022 25.9809Z" fill="white"/>
<path d="M38.9022 25.9809H34.1507C33.9446 25.9809 33.7749 25.8112 33.7749 25.6021V23.3718C33.7749 23.1658 33.9446 22.9961 34.1507 22.9961H34.2688V25.1082C34.2688 25.3173 34.4386 25.487 34.6446 25.487H38.6355L38.7961 25.7446C38.8416 25.8203 38.8779 25.8991 38.9022 25.9809Z" fill="#E5F5F9"/>
<path d="M20.075 28.7754C19.6354 28.7754 19.2789 28.419 19.2789 27.9793V19.0402C19.2789 18.6005 19.6353 18.2441 20.075 18.2441H30.667C31.1066 18.2441 31.463 18.6005 31.463 19.0402V28.7754H20.075Z" fill="#FFBC50"/>
<path d="M31.4626 27.9258V28.7759H20.075C19.6348 28.7759 19.2797 28.4189 19.2797 27.9787V19.0395C19.2797 18.6012 19.6348 18.2441 20.075 18.2441H20.1298V27.1286C20.1298 27.5688 20.4849 27.9258 20.9251 27.9258H31.4626Z" fill="#FFB32C"/>
<path d="M36.9512 29.6868C36.9512 30.652 36.1733 31.4421 35.2081 31.4421C34.2306 31.4421 33.4528 30.652 33.4528 29.6868C33.4528 29.1777 33.6686 28.7175 34.0188 28.3998C34.3284 28.1107 34.7479 27.9355 35.2081 27.9355C35.6683 27.9355 36.0756 28.1107 36.3892 28.3998C36.7354 28.7175 36.9512 29.1777 36.9512 29.6868Z" fill="#24272B"/>
<path d="M35.8372 29.6877C35.8372 30.0382 35.5547 30.3251 35.2042 30.3251C34.8492 30.3251 34.5668 30.0382 34.5668 29.6877C34.5668 29.5028 34.6452 29.3357 34.7723 29.2204C34.8847 29.1153 35.0371 29.0518 35.2042 29.0518C35.3713 29.0518 35.5192 29.1153 35.6331 29.2204C35.7588 29.3357 35.8372 29.5028 35.8372 29.6877Z" fill="white"/>
<path d="M24.0287 29.6868C24.0287 30.652 23.2508 31.4421 22.2856 31.4421C21.3081 31.4421 20.5303 30.652 20.5303 29.6868C20.5303 29.1777 20.7461 28.7175 21.0964 28.3998C21.4059 28.1107 21.8254 27.9355 22.2856 27.9355C22.7458 27.9355 23.1531 28.1107 23.4667 28.3998C23.8129 28.7175 24.0287 29.1777 24.0287 29.6868Z" fill="#24272B"/>
<path d="M22.9147 29.6877C22.9147 30.0382 22.6322 30.3251 22.2817 30.3251C21.9268 30.3251 21.6443 30.0382 21.6443 29.6877C21.6443 29.5028 21.7227 29.3357 21.8499 29.2204C21.9623 29.1153 22.1146 29.0518 22.2817 29.0518C22.4488 29.0518 22.5967 29.1153 22.7106 29.2204C22.8363 29.3357 22.9147 29.5028 22.9147 29.6877Z" fill="white"/>
<path d="M27.0915 18.2441V20.4546C27.0915 20.5642 26.972 20.6372 26.8758 20.5841L26.2983 20.2854C26.2552 20.2655 26.2054 20.2655 26.1623 20.2854L25.4388 20.6604C25.3957 20.6836 25.3459 20.6836 25.3028 20.6604L24.5793 20.2854C24.5362 20.2655 24.4864 20.2655 24.4433 20.2854L23.8659 20.5874C23.7663 20.6372 23.6501 20.5642 23.6501 20.4546V18.2441H27.0915Z" fill="white"/>
<path d="M27.0917 19.8062V20.4535C27.0917 20.5635 26.9733 20.6355 26.876 20.5847L26.2964 20.2843C26.2541 20.2674 26.2075 20.2674 26.161 20.2843L25.4375 20.6608C25.3952 20.682 25.3444 20.682 25.3021 20.6608L24.5786 20.2843C24.5364 20.2674 24.4856 20.2674 24.4433 20.2843L23.8679 20.5889C23.7663 20.6355 23.6521 20.5635 23.6521 20.4535V19.8062C23.6521 19.9162 23.7663 19.9882 23.8679 19.9416L24.4433 19.637C24.4856 19.6158 24.5364 19.6158 24.5786 19.637L25.3021 20.0135C25.3444 20.0346 25.3952 20.0346 25.4375 20.0135L26.161 19.637C26.2075 19.6158 26.2541 19.6158 26.2964 19.637L26.876 19.9373C26.9733 19.9882 27.0917 19.9162 27.0917 19.8062Z" fill="#E5F5F9"/>
<path d="M22.8217 30.0192C22.7103 30.2024 22.5119 30.3252 22.2814 30.3252C21.9263 30.3252 21.6448 30.0381 21.6448 29.6886C21.6448 29.5035 21.7223 29.3353 21.8507 29.2201C21.8809 29.1918 21.915 29.1672 21.9508 29.1445C21.8904 29.2409 21.8583 29.3542 21.8583 29.4732C21.8583 29.8246 22.1416 30.1118 22.4949 30.1118C22.6158 30.1118 22.7272 30.0778 22.8217 30.0192Z" fill="#E5F5F9"/>
<path d="M35.7437 30.0192C35.6323 30.2024 35.4339 30.3252 35.2034 30.3252C34.8482 30.3252 34.5668 30.0381 34.5668 29.6886C34.5668 29.5035 34.6443 29.3353 34.7727 29.2201C34.8029 29.1918 34.8369 29.1672 34.8728 29.1445C34.8124 29.2409 34.7803 29.3542 34.7803 29.4732C34.7803 29.8246 35.0636 30.1118 35.4169 30.1118C35.5378 30.1118 35.6492 30.0778 35.7437 30.0192Z" fill="#E5F5F9"/>
<path d="M38.9415 27.5674V28.6461H38.354C38.2406 28.6461 38.1481 28.5535 38.1481 28.4383V27.7752C38.1481 27.6599 38.2406 27.5674 38.354 27.5674H38.9415Z" fill="#FFBC50"/>
<path d="M38.9415 28.4723V28.6461H38.354C38.2406 28.6461 38.1481 28.5536 38.1481 28.4383V27.7752C38.1481 27.6695 38.2255 27.5825 38.3256 27.5693C38.3219 27.5788 38.3219 27.5901 38.3219 27.6014V28.2645C38.3219 28.3798 38.4144 28.4723 38.5278 28.4723H38.9415Z" fill="#FFB32C"/>
<g opacity="0.3">
<path d="M30.4712 20.0525V20.5676C30.4712 20.7765 30.2995 20.9482 30.0905 20.9482C29.8816 20.9482 29.7098 20.7765 29.7098 20.5676V20.0525C29.7098 19.8436 29.8816 19.6719 30.0905 19.6719C30.2995 19.6719 30.4712 19.8436 30.4712 20.0525Z" fill="white"/>
<path d="M30.4712 21.8293V26.8558C30.4712 27.0673 30.2995 27.2365 30.0905 27.2365C29.8816 27.2365 29.7098 27.0673 29.7098 26.8558V21.8293C29.7098 21.6204 29.8816 21.4512 30.0905 21.4512C30.2995 21.4512 30.4712 21.6204 30.4712 21.8293Z" fill="white"/>
</g>
<g opacity="0.3">
<path d="M36.5508 29.666C36.4875 29.666 36.4361 29.6146 36.4361 29.5513C36.4361 29.162 36.226 28.8022 35.888 28.6121C35.8327 28.5811 35.8132 28.5112 35.8442 28.4559C35.8751 28.4009 35.945 28.3811 36.0003 28.4122C36.4106 28.6428 36.6654 29.0793 36.6654 29.5513C36.6654 29.6146 36.6141 29.666 36.5508 29.666Z" fill="white"/>
<path d="M35.5403 28.488C35.5346 28.488 35.5288 28.4876 35.5231 28.4867C35.4692 28.4786 35.4141 28.4745 35.3593 28.4745C35.296 28.4745 35.2446 28.4231 35.2446 28.3598C35.2446 28.2965 35.296 28.2451 35.3593 28.2451C35.4254 28.2451 35.492 28.2501 35.5571 28.2599C35.6198 28.2693 35.663 28.3278 35.6534 28.3904C35.6449 28.4472 35.5961 28.488 35.5403 28.488Z" fill="white"/>
</g>
<g opacity="0.3">
<path d="M23.5104 29.666C23.447 29.666 23.3957 29.6146 23.3957 29.5513C23.3957 29.162 23.1856 28.8022 22.8476 28.6121C22.7923 28.5811 22.7728 28.5112 22.8038 28.4559C22.8347 28.4009 22.9046 28.3811 22.9598 28.4122C23.3701 28.6428 23.625 29.0793 23.625 29.5513C23.625 29.6146 23.5737 29.666 23.5104 29.666Z" fill="white"/>
<path d="M22.4999 28.488C22.4942 28.488 22.4884 28.4876 22.4827 28.4867C22.4288 28.4786 22.3737 28.4745 22.3189 28.4745C22.2556 28.4745 22.2042 28.4231 22.2042 28.3598C22.2042 28.2965 22.2556 28.2451 22.3189 28.2451C22.385 28.2451 22.4516 28.2501 22.5167 28.2599C22.5794 28.2693 22.6226 28.3278 22.613 28.3904C22.6045 28.4472 22.5557 28.488 22.4999 28.488Z" fill="white"/>
</g>
<path d="M34.9255 26.7675C34.9255 26.8764 34.8363 26.9638 34.7274 26.9638H33.9812C33.8724 26.9638 33.7849 26.8764 33.7849 26.7675C33.7849 26.6586 33.8724 26.5693 33.9812 26.5693H34.7274C34.8363 26.5693 34.9255 26.6586 34.9255 26.7675Z" fill="#24272B"/>
<path d="M34.9214 26.8051C34.9035 26.8962 34.8232 26.964 34.7268 26.964H33.9806C33.8718 26.964 33.7843 26.8765 33.7843 26.7677C33.7843 26.6713 33.8522 26.5909 33.9414 26.5713C33.9396 26.5838 33.9378 26.5981 33.9378 26.6124C33.9378 26.7212 34.0253 26.8087 34.1342 26.8087H34.8803C34.8946 26.8087 34.9089 26.8069 34.9214 26.8051Z" fill="#13181E"/>
<g opacity="0.3">
<path d="M35.3186 22.3666H32.9355C32.7922 22.3666 32.6775 22.2503 32.6775 22.1086C32.6775 21.967 32.7922 21.8506 32.9355 21.8506H35.3186C35.4603 21.8506 35.5749 21.967 35.5749 22.1086C35.5749 22.2503 35.4603 22.3666 35.3186 22.3666Z" fill="white"/>
</g>
<path d="M3.94212 28.3209C3.93962 28.3083 3.93713 28.2958 3.93713 28.2832C3.93963 28.2958 3.94213 28.3083 3.94464 28.3209L3.94212 28.3209Z" fill="#FF4D78"/>
<path d="M3.88782 14.8418H7.13085V15.5151H3.88782V14.8418Z" fill="white"/>
<path d="M7.13018 14.8436L7.13085 13.7558C7.13141 12.8605 6.40611 12.1344 5.51087 12.1338H5.51085C4.61561 12.1332 3.88942 12.8585 3.88886 13.7538L3.88818 14.8415L7.13018 14.8436Z" fill="#FC545D"/>
<path d="M7.12936 14.0735L7.13083 14.8443L3.88858 14.8402L3.88782 13.754C3.88872 13.2265 4.14196 12.7566 4.53303 12.461C4.57155 12.4319 4.61344 12.4032 4.65489 12.3779C4.57735 12.5637 4.53514 12.7681 4.53644 12.9821L4.53659 13.6257C4.53665 13.8721 4.73631 14.0718 4.98269 14.072L7.12936 14.0735Z" fill="#F14448"/>
<path d="M7.13059 15.5157L7.14515 27.8752C7.14506 28.0259 7.1299 28.1741 7.10469 28.3223L7.09966 28.3223C7.10219 28.3097 7.10471 28.2971 7.10723 28.2846L3.93717 28.2826C3.91464 28.147 3.90217 28.0113 3.90226 27.8756L3.8877 15.5137L7.13059 15.5157Z" fill="#43A1FF"/>
<path d="M7.14545 27.408L7.14515 27.8752C7.14506 28.0259 7.1299 28.1741 7.10469 28.3223L7.09966 28.3223C7.10218 28.3097 7.10471 28.2971 7.10723 28.2846L3.93717 28.2826C3.91464 28.147 3.90217 28.0113 3.90226 27.8756L3.8877 15.5137L4.82464 15.5143C4.82464 15.5143 4.84754 23.3569 4.85653 25.4653C4.86112 26.5396 5.73311 27.4071 6.8074 27.4077L7.14545 27.408Z" fill="#2C8CFF"/>
<path d="M3.93835 28.2832C3.97595 28.5177 4.04227 28.7471 4.1433 28.9634L4.75731 30.2782L5.21387 31.2531C5.33428 31.5144 5.70605 31.5146 5.82678 31.2535L6.28456 30.2791L6.9015 28.9662C7.00324 28.7497 7.07015 28.52 7.10826 28.2852L3.93835 28.2832Z" fill="#F3C291"/>
<path d="M3.93835 28.2832C3.97595 28.5177 4.04227 28.7471 4.1433 28.9634L4.75731 30.2782L5.21387 31.2531C5.33428 31.5144 5.70605 31.5146 5.82678 31.2535L6.28456 30.2791L6.9015 28.9662C7.00324 28.7497 7.07015 28.52 7.10826 28.2852L3.93835 28.2832Z" fill="#FFEFB4"/>
<path d="M5.93239 31.0325L5.82676 31.2535C5.70603 31.5146 5.33425 31.5144 5.21385 31.2531L4.75728 30.2782L4.14267 28.9641C4.04234 28.748 3.97717 28.5168 3.93713 28.2832L4.75853 28.2837C4.79606 28.5173 4.86123 28.7485 4.96408 28.9646L5.57869 30.2787L5.93239 31.0325Z" fill="#F9E49D"/>
<path d="M6.28458 30.2788L5.8268 31.2531C5.70607 31.5143 5.33429 31.514 5.21389 31.2527L4.75732 30.2778C4.95087 30.0745 5.22225 29.949 5.52117 29.9492C5.82259 29.9494 6.0938 30.0752 6.28458 30.2788Z" fill="#24272B"/>
<g opacity="0.3">
<path d="M6.08124 17.3281C5.8714 17.3281 5.70154 17.498 5.70154 17.7078V18.2774C5.70154 18.4872 5.8714 18.6571 6.08124 18.6571C6.28774 18.6571 6.4576 18.4872 6.4576 18.2774V17.7078C6.4576 17.498 6.28774 17.3281 6.08124 17.3281Z" fill="white"/>
<path d="M6.08124 19.1143C5.8714 19.1143 5.70154 19.2841 5.70154 19.494V22.9578C5.70154 23.1643 5.8714 23.3342 6.08124 23.3342C6.28774 23.3342 6.4576 23.1643 6.4576 22.9578V19.494C6.4576 19.2841 6.28774 19.1143 6.08124 19.1143Z" fill="white"/>
</g>
</svg>
