<?xml version="1.0" encoding="iso-8859-1"?>
<!-- Generator: Adobe Illustrator 19.0.0, SVG Export Plug-In . SVG Version: 6.00 Build 0)  -->
<svg version="1.1" id="Layer_1" xmlns="http://www.w3.org/2000/svg" xmlns:xlink="http://www.w3.org/1999/xlink" x="0px" y="0px"
	 viewBox="0 0 512 512" style="enable-background:new 0 0 512 512;" xml:space="preserve">
<polygon style="fill:#C7CFE2;" points="269.241,313.149 269.241,231.724 251.586,231.724 251.586,313.149 175.448,365.494 
	175.448,385.103 178.089,385.103 260.414,328.505 342.739,385.103 345.379,385.103 345.379,365.494 "/>
<path style="fill:#D29B6E;" d="M349.161,178.935l-41.981-15.743c-6.891-2.584-11.456-10.73-11.456-18.089h-70.621
	c0,7.359-4.565,15.505-11.456,18.089l-41.981,15.743c-10.336,3.876-17.184,13.758-17.184,24.797v16.958
	c0,9.751,7.904,17.655,17.655,17.655H348.69c9.751,0,17.655-7.904,17.655-17.655v-16.958
	C366.345,192.693,359.497,182.812,349.161,178.935z"/>
<path style="fill:#E4EAF6;" d="M349.161,178.935l-33.955-12.734l-43.489,36.241c-6.548,5.457-16.058,5.457-22.605,0l-43.489-36.241
	l-33.955,12.734c-10.336,3.876-17.184,13.758-17.184,24.797v16.958c0,9.751,7.904,17.655,17.655,17.655H348.69
	c9.751,0,17.655-7.904,17.655-17.655v-16.958C366.345,192.693,359.497,182.812,349.161,178.935z"/>
<path style="fill:#F0C087;" d="M319.697,37.66l-5.508,82.624c-0.513,7.701-4.361,14.794-10.535,19.425L285.131,153.6
	c-4.584,3.438-10.159,5.297-15.89,5.297h-17.655c-5.73,0-11.306-1.858-15.89-5.297l-18.522-13.892
	c-6.174-4.63-10.022-11.724-10.535-19.425l-5.508-82.624C199.773,17.279,215.938,0,236.363,0h48.1
	C304.889,0,321.055,17.279,319.697,37.66z"/>
<path style="fill:#5B5D6E;" d="M289.732,132.414h-29.319c-4.879,0-8.828-3.953-8.828-8.828c0-4.875,3.948-8.828,8.828-8.828h29.319
	c13.431,0,25.535-11.319,26.422-24.719c0.319-4.862,4.638-8.621,9.397-8.22c4.862,0.323,8.543,4.526,8.224,9.393
	C332.258,113.931,312.509,132.414,289.732,132.414z"/>
<path style="fill:#5A4146;" d="M284.463,0h-48.1c-20.426,0-36.591,17.279-35.232,37.658l2.196,32.941
	c3.036-0.209,78.753-5.652,115.833-24.909l0.535-8.032C321.055,17.279,304.891,0,284.463,0z"/>
<circle style="fill:#707487;" cx="260.414" cy="123.586" r="8.828"/>
<path style="fill:#D29B6E;" d="M216.747,452.59l-41.981-15.743c-6.891-2.584-11.456-10.73-11.456-18.089H92.69
	c0,7.359-4.565,15.505-11.456,18.089L39.253,452.59c-10.336,3.876-17.184,13.758-17.184,24.797v16.958
	c0,9.751,7.904,17.655,17.655,17.655h176.552c9.751,0,17.655-7.904,17.655-17.655v-16.958
	C233.931,466.348,227.083,456.467,216.747,452.59z"/>
<path style="fill:#FF6464;" d="M216.747,452.59l-33.955-12.733l-43.489,36.241c-6.548,5.457-16.058,5.457-22.605,0l-43.489-36.241
	L39.253,452.59c-10.336,3.876-17.184,13.758-17.184,24.797v16.958c0,9.751,7.904,17.655,17.655,17.655h176.552
	c9.751,0,17.655-7.904,17.655-17.655v-16.958C233.931,466.348,227.083,456.467,216.747,452.59z"/>
<path style="fill:#F0C087;" d="M187.283,311.315l-5.508,82.624c-0.513,7.701-4.361,14.794-10.535,19.425l-18.522,13.891
	c-4.584,3.438-10.159,5.297-15.89,5.297h-17.655c-5.73,0-11.306-1.858-15.89-5.297L84.76,413.363
	c-6.174-4.63-10.022-11.724-10.535-19.425l-5.508-82.624c-1.358-20.38,14.807-37.659,35.232-37.659h48.1
	C172.476,273.655,188.641,290.934,187.283,311.315z"/>
<path style="fill:#7D5A50;" d="M152.05,273.655H103.95c-20.426,0-36.591,17.279-35.232,37.658l2.196,32.941
	c3.036-0.209,78.753-5.652,115.833-24.909l0.535-8.032C188.641,290.934,172.477,273.655,152.05,273.655z"/>
<path style="fill:#5A4146;" d="M401.655,273.655c-64.249,0-78.854,69.988-79.448,147.096c-0.024,3.209,1.942,6.098,4.956,7.448
	c10.321,4.623,22.833,8.292,36.796,10.676l75.176,0.038c14.05-2.383,26.639-6.067,37.013-10.713c3.013-1.351,4.98-4.239,4.956-7.448
	C480.509,343.644,465.905,273.655,401.655,273.655z"/>
<path style="fill:#D29B6E;" d="M489.931,494.345v-11.114c0-9.504-5.092-18.279-13.344-22.994l-39.554-22.602
	c-5.501-3.144-8.896-8.993-8.896-15.329v-16.237h-52.966v16.237c0,6.336-3.395,12.185-8.896,15.329l-39.554,22.602
	c-8.249,4.715-13.342,13.49-13.342,22.994v11.114c0,9.751,7.904,17.655,17.655,17.655h141.241
	C482.027,512,489.931,504.096,489.931,494.345z"/>
<path style="fill:#F0C087;" d="M445.793,344.276v46.798c0,9.302-4.881,17.922-12.857,22.709l-22.197,13.319
	c-5.591,3.354-12.576,3.354-18.167,0l-22.197-13.319c-7.977-4.786-12.857-13.407-12.857-22.709v-46.798c0,0,52.966,0,70.621-17.655
	L445.793,344.276z"/>
<path style="fill:#FFD782;" d="M476.588,460.237l-25.77-14.726c-4.868,6.908-23.315,31.06-49.163,40.006
	c-25.848-8.946-44.295-33.098-49.163-40.006l-25.77,14.726c-8.25,4.715-13.343,13.49-13.343,22.994v11.114
	c0,9.751,7.904,17.655,17.655,17.655h141.241c9.751,0,17.655-7.904,17.655-17.655v-11.114
	C489.931,473.727,484.839,464.952,476.588,460.237z"/>
<g>
</g>
<g>
</g>
<g>
</g>
<g>
</g>
<g>
</g>
<g>
</g>
<g>
</g>
<g>
</g>
<g>
</g>
<g>
</g>
<g>
</g>
<g>
</g>
<g>
</g>
<g>
</g>
<g>
</g>
</svg>
