<svg fill="none" height="33" viewBox="0 0 33 33" width="33" xmlns="http://www.w3.org/2000/svg">
    <path
        d="M26.8125 33H6.1875C2.76994 33 0 30.2301 0 26.8125V6.1875C0 2.76994 2.76994 0 6.1875 0H26.8125C30.2301 0 33 2.76994 33 6.1875V26.8125C33 30.2301 30.2301 33 26.8125 33Z"
        fill="#D9F3FC" />
    <path
        d="M14.2499 17.5312C14.0673 17.5312 13.891 17.458 13.7621 17.328L11.8873 15.4377C11.6202 15.1686 11.6222 14.7324 11.8914 14.4653C12.1616 14.1982 12.5968 14.2002 12.8639 14.4694L14.2169 15.8337L17.0126 12.6121C17.2611 12.3244 17.6953 12.2945 17.982 12.543C18.2686 12.7926 18.2996 13.2257 18.0511 13.5124L14.7696 17.294C14.6438 17.4394 14.4633 17.525 14.2726 17.5312C14.2653 17.5312 14.2571 17.5312 14.2499 17.5312Z"
        fill="#58B354" />
    <path
        d="M24.0622 24.75C23.8858 24.75 23.7105 24.683 23.5765 24.5489L18.777 19.7495C18.5089 19.4814 18.5089 19.0462 18.777 18.777C19.0451 18.5089 19.4803 18.5089 19.7495 18.777L24.5489 23.5765C24.8171 23.8446 24.8171 24.2798 24.5489 24.5489C24.4149 24.683 24.2385 24.75 24.0622 24.75Z"
        fill="#00357B" />
    <path
        d="M14.9531 21.6562C11.2571 21.6562 8.25 18.6491 8.25 14.9531C8.25 11.2571 11.2571 8.25 14.9531 8.25C18.6491 8.25 21.6562 11.2571 21.6562 14.9531C21.6562 18.6491 18.6491 21.6562 14.9531 21.6562ZM14.9531 9.62466C12.0151 9.62466 9.62466 12.0151 9.62466 14.9531C9.62466 17.8912 12.0151 20.2816 14.9531 20.2816C17.8912 20.2816 20.2816 17.8912 20.2816 14.9531C20.2816 12.0151 17.8912 9.62466 14.9531 9.62466Z"
        fill="#00357B" />
</svg>
