<svg id="svg7861" height="512" viewBox="0 0 16.933333 16.933334" width="512" xmlns="http://www.w3.org/2000/svg" xmlns:svg="http://www.w3.org/2000/svg"><g id="layer1" transform="translate(0 -280.067)"><path id="path26548" d="m3.7032517 284.29908a.26460982.26460982 0 0 0 -.2636721.23828l-1.0585939 10.05274a.26460982.26460982 0 0 0 -.002.0156c-.0391.74383.5957019 1.33594 1.324266 1.33594h9.5234373c.729289 0 1.40192-.59487 1.322266-1.35156l-1.058594-10.05272a.26460982.26460982 0 0 0 -.263672-.23828z" fill="#ff3c38" font-variant-ligatures="normal" font-variant-position="normal" font-variant-caps="normal" font-variant-numeric="normal" font-variant-alternates="normal" font-feature-settings="normal" text-indent="0" text-align="start" text-decoration-line="none" text-decoration-style="solid" text-decoration-color="#000000" text-transform="none" text-orientation="mixed" white-space="normal" shape-padding="0" isolation="auto" mix-blend-mode="normal" solid-color="#000000" solid-opacity="1" vector-effect="none"/><path id="path26550" d="m12.168246 284.29896c.136023-.00013.24999.10288.263551.23823l1.058849 10.05313c.07966.75669-.593111 1.35134-1.3224 1.35134h1.058333c.72929 0 1.402057-.59465 1.322401-1.35134l-1.058849-10.05313c-.01356-.13535-.127529-.23836-.263552-.23823z" fill="#e83733" font-variant-ligatures="normal" font-variant-position="normal" font-variant-caps="normal" font-variant-numeric="normal" font-variant-alternates="normal" font-feature-settings="normal" text-indent="0" text-align="start" text-decoration-line="none" text-decoration-style="solid" text-decoration-color="#000000" text-transform="none" text-orientation="mixed" white-space="normal" shape-padding="0" isolation="auto" mix-blend-mode="normal" solid-color="#000000" solid-opacity="1" vector-effect="none"/><path id="path15979" d="m8.4669236 281.12525c-1.461216 0-2.6464848 1.18527-2.6464848 2.64649v2.38086a.2646485.2646485 0 1 0 .5292968 0v-2.38086c0-1.17721.9399771-2.11719 2.117188-2.11719 1.177209 0 2.1171874.93998 2.1171874 2.11719v2.38086a.2646485.2646485 0 1 0 .529297 0v-2.38086c0-1.46122-1.1852703-2.64649-2.6464844-2.64649z" fill="#e9e9ff" font-variant-ligatures="normal" font-variant-position="normal" font-variant-caps="normal" font-variant-numeric="normal" font-variant-alternates="normal" font-feature-settings="normal" text-indent="0" text-align="start" text-decoration-line="none" text-decoration-style="solid" text-decoration-color="#000000" text-transform="none" text-orientation="mixed" white-space="normal" shape-padding="0" isolation="auto" mix-blend-mode="normal" solid-color="#000000" solid-opacity="1" vector-effect="none"/></g></svg>